Coordinates
version=1
nRows=16
nColumns=40
inDegrees=yes

Units are S.I. units (second, meters, Newtons, ...)
If the header above contains a line with 'inDegrees', this indicates whether rotational values are in degrees (yes) or radians (no).

endheader
time	pelvis_tilt	pelvis_list	pelvis_rotation	pelvis_tx	pelvis_ty	pelvis_tz	hip_flexion_r	hip_adduction_r	hip_rotation_r	knee_angle_r	knee_angle_r_beta	ankle_angle_r	subtalar_angle_r	mtp_angle_r	hip_flexion_l	hip_adduction_l	hip_rotation_l	knee_angle_l	knee_angle_l_beta	ankle_angle_l	subtalar_angle_l	mtp_angle_l	lumbar_extension	lumbar_bending	lumbar_rotation	arm_flex_r	arm_add_r	arm_rot_r	elbow_flex_r	pro_sup_r	wrist_flex_r	wrist_dev_r	arm_flex_l	arm_add_l	arm_rot_l	elbow_flex_l	pro_sup_l	wrist_flex_l	wrist_dev_l
      0.35600000	     19.71540137	      1.41934144	      2.86215343	      0.42986952	      0.96105289	     -0.32988626	     -1.18718292	      1.78700024	     -5.12690033	     26.44883185	      0.46161920	     -4.30168384	      0.00000000	      0.00000000	    -20.00307849	     -3.23495708	      2.26898640	     53.23335688	      0.92909735	    -32.96877672	      0.00000000	      0.00000000	    -33.24918889	      2.16341393	     -4.05446294	      0.53358066	    -16.76465984	      9.42543643	     42.28216897	     75.96481254	      0.00000000	      0.00000000	      5.89811899	    -23.52709299	     22.42457727	     46.98119548	     79.31617399	      0.00000000	      0.00000000
      0.36000000	     19.89786220	      1.26329313	      3.07491723	      0.43527318	      0.96229710	     -0.32928878	     -2.03154121	      2.05918228	     -5.50224185	     25.90111449	      0.45205973	     -4.33579593	      0.00000000	      0.00000000	    -19.41640865	     -3.60255748	      2.34330784	     53.96676869	      0.94189780	    -31.94362900	      0.00000000	      0.00000000	    -33.41141599	      2.37160054	     -4.01725082	      0.58929046	    -16.89393806	      9.88035045	     42.51171188	     75.93583817	      0.00000000	      0.00000000	      5.93627972	    -23.63717121	     22.68294942	     46.89834543	     79.35681050	      0.00000000	      0.00000000
      0.36400000	     20.03137159	      1.26605710	      3.11852685	      0.44085657	      0.96346913	     -0.32884830	     -2.82519612	      2.16972750	     -5.39665618	     25.40594422	      0.44341738	     -4.22127515	      0.00000000	      0.00000000	    -18.83338222	     -3.68474072	      2.33880827	     54.59190483	      0.95280848	    -30.97356667	      0.00000000	      0.00000000	    -33.51797351	      2.35127267	     -3.94106171	      0.69001901	    -16.95435346	     10.18182464	     42.60266688	     75.89769078	      0.00000000	      0.00000000	      5.86075063	    -23.73354300	     22.86763574	     46.94339994	     79.38341403	      0.00000000	      0.00000000
      0.36800000	     20.15952498	      1.06556932	      3.22660049	      0.44650054	      0.96468319	     -0.32810935	     -3.61969466	      2.49266970	     -5.71472702	     24.83858262	      0.43351505	     -4.29624667	      0.00000000	      0.00000000	    -18.24502410	     -4.05257986	      2.29149379	     55.20855140	      0.96357100	    -30.01390102	      0.00000000	      0.00000000	    -33.61602281	      2.53669599	     -3.82468993	      0.79406718	    -16.92714867	     10.28456210	     42.67216082	     75.92220926	      0.00000000	      0.00000000	      5.80810608	    -23.78940983	     22.99989316	     46.90572627	     79.48424944	      0.00000000	      0.00000000
      0.37200000	     20.28201233	      1.16449723	      3.09874654	      0.45183580	      0.96586772	     -0.32806244	     -4.28242712	      2.38037078	     -5.89577522	     24.55916730	      0.42863833	     -4.14926936	      0.00000000	      0.00000000	    -17.68585076	     -3.90527560	      2.17707844	     55.57400536	      0.96994937	    -29.71052767	      0.00000000	      0.00000000	    -33.75124906	      2.40140285	     -3.64167195	      0.88869955	    -17.03240970	     10.38103569	     42.78492494	     75.94795040	      0.00000000	      0.00000000	      5.78668824	    -23.71343578	     23.03638638	     46.85801747	     79.51086416	      0.00000000	      0.00000000
      0.37600000	     20.40235268	      1.04397177	      3.28666365	      0.45756339	      0.96705258	     -0.32754044	     -5.19318631	      2.66861339	     -6.02728965	     23.78375621	      0.41510485	     -4.11426336	      0.00000000	      0.00000000	    -17.11504586	     -4.11739395	      2.41931264	     56.14319219	      0.97988356	    -28.27104979	      0.00000000	      0.00000000	    -33.80844529	      2.55463375	     -3.61874629	      0.89180658	    -17.08313405	     10.56199851	     43.12985014	     76.00320610	      0.00000000	      0.00000000	      5.76857613	    -23.76245236	     23.20012457	     46.71169057	     79.61477484	      0.00000000	      0.00000000
      0.38000000	     20.71996050	      0.85577959	      3.40978008	      0.46348658	      0.96854085	     -0.32683967	     -6.38372307	      3.04394627	     -6.23860555	     22.86707846	      0.39910581	     -4.36592023	      0.00000000	      0.00000000	    -16.83426908	     -4.43557477	      2.43840978	     56.41722529	      0.98466634	    -27.65151350	      0.00000000	      0.00000000	    -34.06775540	      2.73713767	     -3.52402982	      1.00013784	    -17.08494184	     10.81879082	     43.17750505	     76.13584800	      0.00000000	      0.00000000	      5.61631505	    -23.84380067	     23.17969331	     46.76928814	     79.89557037	      0.00000000	      0.00000000
      0.38400000	     20.89087552	      0.86584226	      3.36148674	      0.46934028	      0.96970506	     -0.32655328	     -7.24832272	      3.08903231	     -6.34401462	     22.34239349	      0.38994833	     -4.26146444	      0.00000000	      0.00000000	    -16.41403322	     -4.38939956	      2.47350450	     56.70304054	      0.98965475	    -26.87473105	      0.00000000	      0.00000000	    -34.16345210	      2.69705877	     -3.38510960	      0.98808345	    -17.18060604	     10.95868704	     43.45592799	     76.25524024	      0.00000000	      0.00000000	      5.49403715	    -23.81161443	     23.17070474	     46.73777713	     79.98450792	      0.00000000	      0.00000000
      0.38800000	     21.04778454	      0.88893332	      3.25429819	      0.47493466	      0.97096788	     -0.32611588	     -8.14725869	      3.15190471	     -6.32882298	     21.65599991	      0.37796850	     -4.27689027	      0.00000000	      0.00000000	    -15.98181791	     -4.31434767	      2.40381780	     56.96598436	      0.99424399	    -26.01103220	      0.00000000	      0.00000000	    -34.30399679	      2.60074077	     -3.20960654	      1.10748936	    -17.24821917	     11.17854610	     43.59574243	     76.34781337	      0.00000000	      0.00000000	      5.39259377	    -23.79929941	     23.14008525	     46.70525812	     80.10390188	      0.00000000	      0.00000000
      0.39200000	     21.60530252	      0.72851515	      3.35312813	      0.48142502	      0.97271227	     -0.32536776	     -9.76384985	      3.53547998	     -6.51172015	     20.48233301	      0.35748415	     -4.62193134	      0.00000000	      0.00000000	    -16.12590638	     -4.64700300	      2.32801809	     56.85053742	      0.99222906	    -25.60941438	      0.00000000	      0.00000000	    -34.74943301	      2.73777966	     -3.13215186	      1.06125998	    -17.20648356	     11.19170257	     43.82524586	     76.68971405	      0.00000000	      0.00000000	      5.10396047	    -23.88878684	     22.94709024	     46.94309873	     80.58574642	      0.00000000	      0.00000000
      0.39600000	     21.65206473	      0.76300583	      3.12770308	      0.48694186	      0.97374619	     -0.32471310	    -10.28780225	      3.48622472	     -6.68491149	     20.32089735	      0.35466657	     -4.53207864	      0.00000000	      0.00000000	    -15.58882391	     -4.49576898	      2.24825618	     56.92705887	      0.99356461	    -25.41787538	      0.00000000	      0.00000000	    -34.77182640	      2.57592751	     -2.90200947	      1.20024340	    -17.19681958	     11.22247130	     43.93194702	     76.69628941	      0.00000000	      0.00000000	      4.98433157	    -23.89303710	     22.93205957	     46.88471025	     80.59060913	      0.00000000	      0.00000000
      0.40000000	     21.83053536	      0.73226319	      3.17163474	      0.49292912	      0.97486113	     -0.32423862	    -11.45873083	      3.71471125	     -6.48809285	     19.15658988	      0.33434557	     -4.68346230	      0.00000000	      0.00000000	    -15.21137962	     -4.56399457	      2.21072025	     57.14577401	      0.99738191	    -24.01516584	      0.00000000	      0.00000000	    -34.88596216	      2.56924609	     -2.75771715	      1.10349405	    -17.26572696	     11.10193009	     44.17914543	     76.37534983	      0.00000000	      0.00000000	      4.83678580	    -23.87367385	     22.76843530	     46.95196359	     80.81852758	      0.00000000	      0.00000000
      0.40400000	     21.85766556	      0.83148360	      3.02501783	      0.49853141	      0.97578997	     -0.32378695	    -12.09415042	      3.62909177	     -6.64089509	     18.73568130	      0.32699933	     -4.58075041	      0.00000000	      0.00000000	    -14.66472967	     -4.36328189	      2.14750329	     57.10285418	      0.99663282	    -23.67609374	      0.00000000	      0.00000000	    -34.87421622	      2.37817360	     -2.61249018	      1.16364078	    -17.28195924	     11.18678355	     44.35412351	     76.35598401	      0.00000000	      0.00000000	      4.74706706	    -23.83211377	     22.74295741	     46.86028917	     80.86571415	      0.00000000	      0.00000000
      0.40800000	     22.26730866	      0.77136959	      3.05555121	      0.50460815	      0.97728589	     -0.32324572	    -13.54721220	      3.88768518	     -6.54818832	     17.49721695	      0.30538405	     -4.99569108	      0.00000000	      0.00000000	    -14.63923668	     -4.44963146	      2.14013106	     56.98429539	      0.99456358	    -22.78969522	      0.00000000	      0.00000000	    -35.20725092	      2.41033477	     -2.52493043	      1.16188522	    -17.30602273	     11.22670985	     44.64615264	     76.27793050	      0.00000000	      0.00000000	      4.55042172	    -23.84141623	     22.49457892	     46.92940453	     81.06664765	      0.00000000	      0.00000000
      0.41200000	     22.28869099	      0.80118981	      2.86500964	      0.50978445	      0.97814804	     -0.32261048	    -14.01370772	      3.84783505	     -6.72940936	     17.33094435	      0.30248204	     -4.90544350	      0.00000000	      0.00000000	    -14.05663831	     -4.31750773	      2.04740539	     56.91536594	      0.99336053	    -22.58251301	      0.00000000	      0.00000000	    -35.24436221	      2.24381944	     -2.30137475	      1.31982103	    -17.30771102	     11.24490286	     44.75747816	     76.28839447	      0.00000000	      0.00000000	      4.48209722	    -23.83894388	     22.48190949	     46.96078822	     81.08170554	      0.00000000	      0.00000000
      0.41600000	     22.52546812	      0.76893871	      2.60042351	      0.51640174	      0.97920889	     -0.32178694	    -15.28709689	      3.99541983	     -6.18523256	     16.15304877	      0.28192389	     -5.16221184	      0.00000000	      0.00000000	    -13.95911334	     -4.29290292	      1.72373318	     56.73773243	      0.99026024	    -21.40386817	      0.00000000	      0.00000000	    -35.34319578	      2.08767647	     -1.96600648	      1.17789038	    -17.35544776	     11.25215665	     45.07246221	     76.38172397	      0.00000000	      0.00000000	      4.13196141	    -23.81125898	     22.23806838	     47.15321113	     81.41160710	      0.00000000	      0.00000000
